<?xml version="1.0" standalone="no"?>
<!DOCTYPE svg PUBLIC "-//W3C//DTD SVG 20010904//EN"
 "http://www.w3.org/TR/2001/REC-SVG-20010904/DTD/svg10.dtd">
<svg version="1.0" xmlns="http://www.w3.org/2000/svg"
 width="980.000000pt" height="980.000000pt" viewBox="0 0 980.000000 980.000000"
 preserveAspectRatio="xMidYMid meet">

<g transform="translate(0.000000,980.000000) scale(0.100000,-0.100000)"
fill="#000000" stroke="none">
<path d="M4429 9793 c-15 -2 -34 -12 -43 -22 -24 -26 -59 -176 -116 -499 -65
-368 -86 -463 -108 -484 -9 -9 -68 -28 -136 -43 -66 -15 -191 -48 -279 -74
l-160 -47 -37 40 c-20 23 -136 158 -257 301 -256 301 -358 405 -397 405 -48 0
-560 -276 -773 -417 -90 -59 -103 -75 -103 -123 0 -38 74 -258 214 -635 l104
-280 -225 -226 -225 -227 -99 39 c-291 113 -779 279 -822 279 -18 0 -42 -7
-54 -15 -64 -45 -483 -794 -483 -864 0 -36 145 -176 435 -421 127 -106 248
-210 271 -230 l40 -37 -47 -160 c-26 -88 -59 -213 -74 -279 -15 -65 -33 -127
-42 -136 -19 -21 -74 -34 -453 -103 -394 -73 -513 -101 -536 -127 -18 -19 -19
-47 -19 -502 0 -436 2 -484 17 -508 26 -39 151 -68 703 -163 116 -20 225 -41
243 -47 49 -15 46 -5 167 -468 l33 -125 -37 -39 c-20 -21 -146 -133 -281 -249
-326 -281 -420 -373 -420 -410 0 -72 432 -836 490 -867 10 -5 33 -10 50 -10
38 0 288 84 650 219 l265 98 226 -225 227 -224 -39 -99 c-109 -279 -279 -779
-279 -819 0 -15 3 -36 6 -45 11 -26 116 -96 369 -240 273 -157 466 -255 502
-255 38 0 119 84 411 424 l265 308 46 -6 c25 -3 101 -22 169 -41 67 -19 175
-46 240 -60 69 -16 124 -34 135 -44 19 -19 55 -182 122 -556 56 -313 82 -412
113 -433 23 -15 71 -17 472 -20 245 -2 464 0 488 3 30 4 47 14 59 31 23 36 53
166 117 519 72 388 83 439 104 458 10 9 62 26 117 38 89 19 290 74 415 113
l46 14 224 -266 c284 -336 425 -482 462 -482 38 0 282 125 545 278 234 137
317 192 327 218 3 9 6 29 6 46 0 37 -86 292 -219 648 l-98 265 225 227 225
226 51 -20 c243 -98 826 -298 868 -298 16 0 38 5 48 10 57 30 471 758 487 855
6 35 3 40 -83 124 -49 48 -188 173 -309 278 -121 105 -247 218 -280 252 l-60
61 49 193 c63 250 92 341 119 372 20 23 52 30 377 89 443 81 572 110 596 138
18 19 19 47 19 508 0 460 -1 489 -18 508 -25 28 -150 57 -592 137 -239 44
-365 71 -377 82 -10 9 -27 41 -39 72 -22 60 -129 465 -129 492 0 22 128 145
360 345 277 240 370 332 370 367 0 72 -432 836 -490 867 -10 5 -32 10 -48 10
-41 0 -538 -169 -821 -279 l-99 -39 -225 227 -225 226 84 225 c127 339 234
658 234 694 0 17 -7 41 -15 53 -45 64 -793 483 -864 483 -36 0 -174 -143 -446
-464 -121 -142 -224 -264 -229 -270 -7 -10 -47 -1 -171 35 -89 26 -216 59
-281 74 -92 20 -124 31 -140 49 -22 25 -32 73 -119 556 -50 277 -82 404 -107
427 -19 17 -48 18 -487 19 -256 1 -478 -1 -492 -3z m747 -1964 c572 -55 1105
-270 1554 -625 90 -72 380 -357 419 -411 l22 -33 -2261 0 -2261 0 22 33 c39
54 329 339 419 411 377 298 844 511 1301 591 238 43 558 56 785 34z m2201
-1354 c469 -755 572 -1665 283 -2499 -224 -647 -675 -1199 -1263 -1548 -239
-142 -556 -272 -809 -332 l-28 -6 0 1840 0 1840 845 0 845 0 0 447 0 448 36
-50 c19 -28 61 -90 91 -140z m-3987 -705 l850 0 0 -1836 0 -1836 -37 7 c-76
14 -362 114 -486 170 -221 99 -439 233 -627 381 -109 87 -367 345 -454 454
-683 862 -828 2020 -379 3017 58 130 149 295 230 419 l48 73 3 -425 2 -424
850 0z"/>
</g>
</svg>
